HIERARCHY
ROOT ui
{
	 OFFSET 0 0 0
	 CHANNELS 3 XPosition YPosition Z Position
	 EndSite
	 {
	 OFFSET 0 -1 0
	 }
}
ROOT li
{
	 OFFSET 0 0 0
	 CHANNELS 3 XPosition YPosition Z Position
	 EndSite
	 {
	 OFFSET 0 -1 0
	 }
}
ROOT ul
{
	 OFFSET 0 0 0
	 CHANNELS 3 XPosition YPosition Z Position
	 EndSite
	 {
	 OFFSET 0 -1 0
	 }
}
ROOT ll
{
	 OFFSET 0 0 0
	 CHANNELS 3 XPosition YPosition Z Position
	 EndSite
	 {
	 OFFSET 0 -1 0
	 }
}
ROOT tt
{
	 OFFSET 0 0 0
	 CHANNELS 3 XPosition YPosition Z Position
	 EndSite
	 {
	 OFFSET 0 -1 0
	 }
}
ROOT tb
{
	 OFFSET 0 0 0
	 CHANNELS 3 XPosition YPosition Z Position
	 EndSite
	 {
	 OFFSET 0 -1 0
	 }
}
ROOT td
{
	 OFFSET 0 0 0
	 CHANNELS 3 XPosition YPosition Z Position
	 EndSite
	 {
	 OFFSET 0 -1 0
	 }
}
ROOT v
{
	 OFFSET 0 0 0
	 CHANNELS 3 XPosition YPosition Z Position
	 EndSite
	 {
	 OFFSET 0 -1 0
	 }
}
ROOT bn
{
	 OFFSET 0 0 0
	 CHANNELS 3 XPosition YPosition Z Position
	 EndSite
	 {
	 OFFSET 0 -1 0
	 }
}
MOTION
Frames: 32
Frame Time: 0.002
-0.03134465789794922	0.0017529640197753906	0		0.3987405090332031	-2.30432666015625	0		-1.0111644287109376	0.42753488159179687	0		-0.5726163330078125	-2.580904052734375	0		1.589804931640625	-0.4162159423828125	0		3.233010986328125	-0.06348418426513672	0		4.46484619140625	-0.12975375366210937	0		5.90015234375	0.33566415405273436	0		-0.15789019775390625	5.9900185546875	0		
0.046613109588623046	0.0019380120038986206	0		0.42462451171875	-2.307986083984375	0		-1.0112362670898438	0.42743505859375	0		-0.6086257934570313	-2.579203369140625	0		1.546708251953125	-0.41733721923828127	0		3.210016357421875	-0.060031776428222654	0		4.45995849609375	-0.12168773651123047	0		5.89639697265625	0.3202420349121094	0		-0.17321551513671876	5.98126123046875	0		
-0.006549430847167969	2.4948999285697937E-5	0		0.44638665771484376	-2.315550537109375	0		-0.9912235107421875	0.43289208984375	0		-0.5799058227539062	-2.58893603515625	0		1.585551025390625	-0.42026333618164063	0		3.20506396484375	-0.052965076446533206	0		4.45985107421875	-0.12171282958984375	0		5.8925966796875	0.30312844848632814	0		-0.1743836669921875	5.9821953125	0		
-0.006700591087341308	-5.757400020956993E-5	0		0.4192806396484375	-2.315029296875	0		-1.011509521484375	0.4272362976074219	0		-0.5841012573242188	-2.59293896484375	0		1.5823192138671875	-0.4242521057128906	0		3.2138671875	-0.0551923828125	0		4.45970166015625	-0.12172097778320312	0		5.89248974609375	0.3031564025878906	0		-0.18889602661132812	5.970421875	0		
-0.009960665702819824	-0.003070178985595703	0		0.4538800354003906	-2.3268701171875	0		-0.97572119140625	0.4263428649902344	0		-0.5862888793945312	-2.594985107421875	0		1.55389697265625	-0.4346801452636719	0		3.22111328125	-0.03536832809448242	0		4.46675048828125	-0.11087039947509765	0		5.89235205078125	0.30321905517578124	0		-0.17396820068359375	5.98100537109375	0		
-0.007133677005767823	-2.1376800537109374E-4	0		0.4038816223144531	-2.31783642578125	0		-1.0078732299804687	0.4309490661621094	0		-0.609574462890625	-2.59956640625	0		1.556755615234375	-0.430789306640625	0		3.21409765625	-0.025221574783325196	0		4.46482373046875	-0.09680721282958984	0		5.87890185546875	0.33344100952148437	0		-0.17531697082519532	5.98194677734375	0		
-0.007414391994476318	-2.874020040035248E-4	0		0.4457135009765625	-2.315825439453125	0		-1.0022760009765626	0.4257200622558594	0		-0.5789751586914063	-2.60833544921875	0		1.5592425537109376	-0.4418880310058594	0		3.23192333984375	-0.020613868713378905	0		4.46454541015625	-0.0967713623046875	0		5.88282470703125	0.31603948974609375	0		-0.19098269653320313	5.97120166015625	0		
-0.007733748912811279	-3.575890064239502E-4	0		0.3904906005859375	-2.31367431640625	0		-1.0125822143554688	0.42684326171875	0		-0.5745347290039062	-2.62252734375	0		1.59581591796875	-0.44772930908203123	0		3.23473583984375	-0.014665938377380372	0		4.4694033203125	-0.08883535003662109	0		5.88600634765625	0.2987021484375	0		-0.19145974731445312	5.971126953125	0		
-0.008086235046386718	-4.23801988363266E-4	0		0.4400149230957031	-2.32282568359375	0		-1.0129465942382812	0.42674899291992185	0		-0.579944580078125	-2.628498046875	0		1.5524423828125	-0.44880587768554686	0		3.218651123046875	-0.0022931289672851562	0		4.473162109375	-0.08386564636230469	0		5.873171875	0.3272306213378906	0		-0.19193498229980469	5.97305517578125	0		
-0.03343605422973633	0.0010626649856567384	0		0.3966490173339844	-2.324930419921875	0		-1.0033611450195312	0.42543911743164065	0		-0.5725332641601563	-2.64174853515625	0		1.5658548583984375	-0.4591269226074219	0		3.227227294921875	-0.004458131790161132	0		4.47591748046875	-0.07786459350585938	0		5.8824951171875	0.28364913940429687	0		-0.17631434631347656	5.98063525390625	0		
0.04419655609130859	0.0012964060306549072	0		0.434119140625	-2.33480517578125	0		-0.9897037963867188	0.4280457763671875	0		-0.5620472412109375	-2.651060546875	0		1.563388916015625	-0.463092041015625	0		3.247333984375	0.018137561798095704	0		4.472791015625	-0.06572549438476563	0		5.872625	0.3276244201660156	0		-0.16264627075195312	5.99126416015625	0		
-0.009251795768737792	-5.928459763526917E-4	0		0.42397027587890623	-2.3266259765625	0		-0.9950012817382813	0.43307403564453123	0		-0.5345677490234375	-2.66073828125	0		1.5860673828125	-0.46060025024414064	0		3.21312109375	0.026924861907958984	0		4.489240234375	-0.07301394653320313	0		5.8665927734375	0.32295245361328123	0		-0.1784341278076172	5.98153955078125	0		
-0.014529009819030762	0.004470105171203613	0		0.44444793701171875	-2.336115234375	0		-1.0045740356445312	0.4251990966796875	0		-0.587822509765625	-2.65764111328125	0		1.568478515625	-0.47022567749023436	0		3.212732666015625	0.026972496032714843	0		4.47716357421875	-0.05867078399658203	0		5.8626123046875	0.3077904357910156	0		-0.19423062133789062	5.97081982421875	0		
-0.010009034156799317	-6.772770285606384E-4	0		0.4249713134765625	-2.343725830078125	0		-1.004955078125	0.42513290405273435	0		-0.51763916015625	-2.68223974609375	0		1.628063720703125	-0.47353109741210936	0		3.23046728515625	0.03162616348266602	0		4.48679296875	-0.05880725479125976	0		5.85563623046875	0.27547470092773435	0		-0.1947176971435547	5.97277490234375	0		
0.03961731338500977	-0.0028007810115814207	0		0.4583746948242188	-2.358487060546875	0		-1.0053053588867187	0.42507492065429686	0		-0.5770311279296875	-2.68699853515625	0		1.5684658203125	-0.485236572265625	0		3.2095673828125	0.05212331771850586	0		4.48854150390625	-0.054777263641357425	0		5.8553955078125	0.2756613159179688	0		-0.1809872283935547	5.98242919921875	0		
-0.01553797721862793	0.004367286205291748	0		0.43423794555664064	-2.3529853515625	0		-0.991551025390625	0.4277200927734375	0		-0.5366339111328124	-2.70392822265625	0		1.613991455078125	-0.49423348999023436	0		3.227371826171875	0.0567662353515625	0		4.49341650390625	-0.046826099395751955	0		5.8609345703125	0.2807041320800781	0		-0.3138551025390625	5.96327587890625	0		
0.03906913375854492	-0.002852876901626587	0		0.46771261596679686	-2.36773974609375	0		-0.9966968994140625	0.43278768920898436	0		-0.541970458984375	-2.709850830078125	0		1.576867431640625	-0.4884290771484375	0		3.23125146484375	0.06270338821411132	0		4.491451171875	-0.0337403564453125	0		5.8455498046875	0.2556663208007813	0		-0.19596392822265624	5.97267578125	0		
-0.011091021537780762	-7.860509753227234E-4	0		0.45159097290039063	-2.365408203125	0		-0.9659895629882812	0.42808319091796876	0		-0.506622802734375	-2.732655029296875	0		1.6252540283203125	-0.5084945068359376	0		3.245031982421875	0.061412250518798825	0		4.4912578125	-0.033714031219482424	0		5.85077685546875	0.2969833984375	0		-0.19622032165527345	5.9726533203125	0		
0.03384957504272461	0.002217041015625	0		0.45042459106445315	-2.36740087890625	0		-1.006205078125	0.4249312744140625	0		-0.5468214721679687	-2.735804443359375	0		1.611015625	-0.5131976928710937	0		3.211077880859375	0.07014947509765625	0		4.495251953125	-0.027795942306518554	0		5.84398291015625	0.266213134765625	0		-0.19736592102050782	5.97365625	0		
-0.01130504608154297	-8.181080222129822E-4	0		0.45710595703125	-2.37856494140625	0		-0.9922215576171876	0.42761138916015623	0		-0.5062568054199219	-2.752706787109375	0		1.599896484375	-0.5149722900390625	0		3.230842529296875	0.06270238876342774	0		4.49999853515625	-0.03591637420654297	0		5.8496787109375	0.27107791137695314	0		-0.32895806884765627	5.95149609375	0		
0.038636974334716793	-0.0029172780513763426	0		0.44503005981445315	-2.380317626953125	0		-0.987158203125	0.4314941711425781	0		-0.5623457641601562	-2.754498046875	0		1.6208212890625	-0.5174478759765625	0		3.23320947265625	0.08062783050537109	0		4.502408203125	-0.01599719524383545	0		5.84186328125	0.2766134338378906	0		-0.1802943878173828	5.98025927734375	0		
-0.009046104431152344	0.011113533973693848	0		0.4591162414550781	-2.37663720703125	0		-0.9871317749023437	0.43149249267578127	0		-0.511423828125	-2.7586123046875	0		1.620839599609375	-0.5174717407226562	0		3.224278564453125	0.0827855224609375	0		4.51240673828125	-0.01726298141479492	0		5.844638671875	0.26598165893554687	0		-0.18217668151855468	5.98229345703125	0		
-0.011246247291564941	-8.489450216293335E-4	0		0.4607571716308594	-2.394690673828125	0		-0.9970421752929688	0.4327122802734375	0		-0.5088092651367188	-2.777676025390625	0		1.623654052734375	-0.52856201171875	0		3.21536376953125	0.08393528747558594	0		4.52246484375	-0.01754132652282715	0		5.839642578125	0.26092498779296874	0		-0.19724002075195313	5.973615234375	0		
-0.011158029556274414	-8.5829097032547E-4	0		0.45770510864257813	-2.3996396484375	0		-0.9660426635742188	0.4280419006347656	0		-0.47220266723632814	-2.79847998046875	0		1.6237352294921874	-0.52859326171875	0		3.215453125	0.0838826904296875	0		4.50773046875	-0.00928662109375	0		5.8311943359375	0.2664139709472656	0		-0.19707171630859374	5.9736083984375	0		
-0.04091175079345703	0.005782015800476074	0		0.45777886962890624	-2.39965869140625	0		-0.9919436645507812	0.4276104736328125	0		-0.5101692504882812	-2.79965673828125	0		1.6327684326171874	-0.531824462890625	0		3.224713134765625	0.09062613677978516	0		4.51579296875	-0.011537904739379884	0		5.84253955078125	0.25007736206054687	0		-0.18168446350097656	5.98227001953125	0		
-0.010924073219299316	-8.88005018234253E-4	0		0.47445083618164063	-2.41904931640625	0		-0.9867257690429687	0.43149725341796874	0		-0.4895259094238281	-2.8201201171875	0		1.6390592041015626	-0.5239989013671875	0		3.221731689453125	0.08562774658203125	0		4.51591845703125	-0.01162184715270996	0		5.82633642578125	0.262873291015625	0		-0.16821253967285157	5.99396826171875	0		
-0.015668298721313475	0.004193754196166992	0		0.46573867797851565	-2.410887939453125	0		-0.9865741577148438	0.43148495483398436	0		-0.46162359619140625	-2.82974853515625	0		1.639197265625	-0.5240485229492188	0		3.22187841796875	0.08555563354492188	0		4.5222373046875	-0.003845199108123779	0		5.8154970703125	0.31517623901367187	0		-0.1812406921386719	5.98223095703125	0		
0.03447024917602539	0.0020637059211730956	0		0.5126492919921875	-2.421956787109375	0		-0.9554909057617188	0.426783447265625	0		-0.37090374755859373	-2.849763916015625	0		1.64244921875	-0.5201753540039062	0		3.222052001953125	0.08547418212890626	0		4.511412109375	-0.003703722953796387	0		5.81262646484375	0.29956060791015626	0		-0.18194497680664062	5.98421630859375	0		
-0.010399661064147948	-0.0010076500177383424	0		0.46766262817382814	-2.429032958984375	0		-0.9652548217773438	0.4279581298828125	0		-0.37788278198242187	-2.856659912109375	0		1.642649658203125	-0.5202503662109375	0		3.20917529296875	0.08166504669189453	0		4.52331005859375	-0.018072322845458986	0		5.8060751953125	0.2685512390136719	0		-0.18166581726074219	5.98416357421875	0		
0.03674853134155273	-0.006110208988189697	0		0.4777062377929687	-2.437330810546875	0		-0.9910189819335937	0.4274609069824219	0		-0.48783694458007815	-2.8633251953125	0		1.6635142822265625	-0.5377991943359375	0		3.209423095703125	0.08155451202392579	0		4.5208193359375	-0.006134212970733643	0		5.80625048828125	0.26831207275390623	0		-0.3118703308105469	5.96193701171875	0		
-0.0027118749618530273	0.005660047054290771	0		0.4551326599121094	-2.429935302734375	0		-0.985639404296875	0.43125784301757814	0		-0.34506634521484375	-2.887544921875	0		1.6771458740234375	-0.5222036743164062	0		3.24181494140625	0.08572339630126953	0		4.5311064453125	-0.006494669914245605	0		5.80988134765625	0.25229171752929686	0		-0.16386312866210936	5.99061572265625	0		
0.040433700561523435	-0.003409645080566406	0		0.5311893310546875	-2.44272900390625	0		-0.9853058471679688	0.4311331176757813	0		-0.47954644775390626	-2.876722412109375	0		1.6805601806640624	-0.5184118041992187	0		3.205198974609375	0.08838086700439453	0		4.52661376953125	0.0014531970024108886	0		5.80233544921875	0.25933633422851565	0		-0.1796875	5.981837890625	0		
